<?xml version="1.0" ?><!DOCTYPE svg  PUBLIC '-//W3C//DTD SVG 1.1//EN'  'http://www.w3.org/Graphics/SVG/1.1/DTD/svg11.dtd'><svg height="8.4666mm" style="shape-rendering:geometricPrecision; text-rendering:geometricPrecision; image-rendering:optimizeQuality; fill-rule:evenodd; clip-rule:evenodd" version="1.1" viewBox="0 0 846.66 846.66" width="8.4666mm" xml:space="preserve" xmlns="http://www.w3.org/2000/svg" xmlns:xlink="http://www.w3.org/1999/xlink"><defs><style type="text/css">
   <![CDATA[
    .fil0 {fill:black;fill-rule:nonzero}
   ]]>
  </style></defs><g id="Layer_x0020_1"><path class="fil0" d="M357.71 366.99l45.28 0 0 -28.56c-55.58,-17.82 -83.96,-75.24 -84.46,-130.87 -0.51,-56.53 69.16,-101.47 84.38,-182.61 4.61,-24.59 41.34,-20.18 40.2,4.63 0.77,126.49 85.77,154.33 85.02,216.94 -0.58,48.17 -35.23,92.1 -84.46,96.69l0 23.78 45.28 0c43.89,0 79.72,35.83 79.72,79.71l0 311.66c0,43.89 -35.83,79.71 -79.72,79.71l-131.24 0c-43.89,0 -79.71,-35.82 -79.71,-79.71 0,-103.89 -0.01,-207.77 0,-311.66 0.32,-44 35.56,-79.71 79.71,-79.71zm-39.04 356.5l209.33 0 0 -115.39c-35.93,10.7 -94.69,-1 -94.69,-47.76l0 -87.42c0,-5.33 -33.79,-5.33 -33.79,0l0 49.13c0,39.85 -49.28,50.34 -80.85,43.02l0 158.42zm208.89 40.67l-208.46 0c2.87,18.95 19.39,33.24 38.61,33.24l131.24 0c19.22,0 35.74,-14.29 38.61,-33.24zm-208.89 -242.07c0.8,5.78 40.18,5.38 40.18,-0.04l0 -49.13c0,-60.02 115.14,-60.02 115.14,0l0 87.42c0,14.29 54.01,14.29 54.01,0l0 -113.64c0,-21.43 -17.62,-39.04 -39.05,-39.04l-131.24 0c-21.43,0 -39.04,17.61 -39.04,39.04l0 75.39zm94.79 -408.28c-14.95,26.05 -54.65,66.95 -54.42,93.43 0.41,44.89 25.85,95.17 76.16,95.78 30.48,0.33 52.07,-28.21 52.41,-56.98 0.24,-19.68 -62.79,-92.38 -74.15,-132.23z"/></g></svg>